<svg width="16" height="16" viewBox="0 0 16 16" fill="none" xmlns="http://www.w3.org/2000/svg">
<g clip-path="url(#clip0_141_669)">
<path d="M14.2218 5.77783H10.6662C10.4305 5.77783 10.2044 5.87148 10.0377 6.03818C9.87099 6.20488 9.77734 6.43097 9.77734 6.66672V13.3334C9.77734 13.5691 9.87099 13.7952 10.0377 13.9619C10.2044 14.1286 10.4305 14.2223 10.6662 14.2223H14.2218C14.4575 14.2223 14.6836 14.1286 14.8503 13.9619C15.017 13.7952 15.1107 13.5691 15.1107 13.3334V6.66672C15.1107 6.43097 15.017 6.20488 14.8503 6.03818C14.6836 5.87148 14.4575 5.77783 14.2218 5.77783ZM14.2218 6.66672V12.4445H10.6662V6.66672H14.2218Z" fill="black"/>
<path d="M12.4442 1.77783H1.77756C1.54181 1.77783 1.31572 1.87148 1.14902 2.03818C0.982322 2.20488 0.888672 2.43097 0.888672 2.66672V9.77783C0.888672 10.0136 0.982322 10.2397 1.14902 10.4064C1.31572 10.5731 1.54181 10.6667 1.77756 10.6667H5.33312V11.5556H4.142C4.00584 11.5401 3.86895 11.5777 3.75972 11.6604C3.65049 11.7432 3.5773 11.8648 3.55534 12.0001C3.5773 12.1353 3.65049 12.2569 3.75972 12.3397C3.86895 12.4224 4.00584 12.46 4.142 12.4445H8.85312V12.2801H8.88867V9.77783H1.77756V2.66672H12.4442V4.88894H13.3331V2.66672C13.3331 2.43097 13.2395 2.20488 13.0728 2.03818C12.9061 1.87148 12.68 1.77783 12.4442 1.77783Z" fill="black"/>
</g>
<defs>
<clipPath id="clip0_141_669">
<rect width="16" height="16" fill="white"/>
</clipPath>
</defs>
</svg>
