<svg width="16" height="16" viewBox="0 0 16 16" fill="none" xmlns="http://www.w3.org/2000/svg">
<g clip-path="url(#clip0_141_630)">
<path fill-rule="evenodd" clip-rule="evenodd" d="M11.9649 7.72008C12.7632 7.72008 13.5436 7.963 14.2074 8.41813C14.8712 8.87325 15.3886 9.52014 15.6941 10.277C15.9996 11.0338 16.0795 11.8666 15.9238 12.6701C15.768 13.4736 15.3836 14.2116 14.8191 14.7909C14.2546 15.3701 13.5353 15.7646 12.7524 15.9244C11.9694 16.0842 11.1578 16.0022 10.4202 15.6887C9.68263 15.3752 9.05222 14.8443 8.60869 14.1632C8.16515 13.4821 7.92842 12.6812 7.92842 11.862C7.92842 10.7635 8.35369 9.71 9.11067 8.93324C9.86765 8.15647 10.8943 7.72008 11.9649 7.72008ZM9.1003 0.542463C9.1003 0.244509 9.38675 0 9.75134 0C10.1159 0 10.4024 0.243173 10.4024 0.542463V2.91674C10.4024 3.2147 10.1159 3.45921 9.75134 3.45921C9.38675 3.45921 9.1003 3.21603 9.1003 2.91674V0.542463ZM1.75655 7.68401C1.71879 7.68401 1.68623 7.51967 1.68623 7.31658C1.68623 7.11349 1.71488 6.95182 1.75655 6.95182H3.51566C3.55212 6.95182 3.58467 7.11616 3.58467 7.31658C3.58467 7.51699 3.55603 7.68401 3.51566 7.68401H1.75655ZM4.56123 7.68401C4.52478 7.68401 4.49222 7.51967 4.49222 7.31658C4.49222 7.11349 4.52087 6.94781 4.55733 6.94781H6.32165C6.35811 6.94781 6.39066 7.11215 6.39066 7.31257C6.39066 7.51298 6.36202 7.68 6.32165 7.68L4.56123 7.68401ZM7.36722 7.68401C7.33077 7.68401 7.29821 7.51967 7.29821 7.31658C7.29821 7.11349 7.32686 6.95182 7.36722 6.95182H9.12764C9.1641 6.95182 9.19665 7.11482 9.19665 7.31524C9.02061 7.42805 8.85106 7.55118 8.68884 7.68401H7.36722ZM1.76045 9.78438C1.72399 9.78438 1.69014 9.62004 1.69014 9.41695C1.69014 9.21386 1.71879 9.05085 1.76045 9.05085H3.51566C3.55212 9.05085 3.58467 9.2152 3.58467 9.41695C3.58467 9.6187 3.55603 9.78438 3.51566 9.78438H1.76045ZM4.56514 9.78438C4.52868 9.78438 4.49613 9.62004 4.49613 9.41695C4.49613 9.21386 4.52478 9.05085 4.56514 9.05085H6.32556C6.36202 9.05085 6.39457 9.2152 6.39457 9.41695C6.39457 9.6187 6.36592 9.78438 6.32556 9.78438H4.56514ZM1.76436 11.8914C1.7279 11.8914 1.69405 11.7271 1.69405 11.5253C1.69405 11.3236 1.72399 11.1579 1.76436 11.1579H3.52347C3.55993 11.1579 3.59248 11.3223 3.59248 11.5253C3.59248 11.7284 3.56384 11.8914 3.52347 11.8914H1.76436ZM4.56905 11.8914C4.53259 11.8914 4.50004 11.7271 4.50004 11.5253C4.50004 11.3236 4.52868 11.1579 4.56905 11.1579H6.32946C6.36592 11.1579 6.39847 11.3223 6.39847 11.5253C6.39847 11.7284 6.36983 11.8914 6.32946 11.8914H4.56905ZM3.30212 0.542463C3.30212 0.244509 3.58858 0 3.94665 0C4.30472 0 4.59118 0.243173 4.59118 0.542463V2.91674C4.59118 3.2147 4.30342 3.45921 3.94665 3.45921C3.58988 3.45921 3.30212 3.21603 3.30212 2.91674V0.542463ZM0.709671 5.18948H12.9935V2.45712C12.9932 2.36864 12.9588 2.28388 12.8978 2.22131C12.8368 2.15875 12.7542 2.12344 12.668 2.12309H11.4961C11.4474 2.12611 11.3985 2.11887 11.3526 2.1018C11.3067 2.08473 11.2647 2.05821 11.2291 2.02385C11.1935 1.9895 11.1652 1.94805 11.1458 1.90204C11.1265 1.85603 11.1165 1.80644 11.1165 1.75633C11.1165 1.70621 11.1265 1.65662 11.1458 1.61061C11.1652 1.56461 11.1935 1.52315 11.2291 1.4888C11.2647 1.45444 11.3067 1.42792 11.3526 1.41085C11.3985 1.39379 11.4474 1.38654 11.4961 1.38956H12.668C12.9443 1.38956 13.2092 1.50218 13.4046 1.70263C13.5999 1.90309 13.7097 2.17497 13.7097 2.45845V6.79683C13.4728 6.71313 13.2304 6.6466 12.9844 6.59774V5.92033H0.709671V13.0018C0.712162 13.087 0.746691 13.1679 0.806026 13.2276C0.836535 13.2601 0.873136 13.286 0.913634 13.3037C0.954132 13.3214 0.997692 13.3305 1.0417 13.3304H6.87243C6.93797 13.5837 7.02198 13.8316 7.12373 14.072H1.0417C0.766176 14.0726 0.501649 13.9611 0.306026 13.762C0.20807 13.663 0.130506 13.5448 0.0779416 13.4144C0.0253769 13.2841 -0.00111625 13.1442 3.60352e-05 13.0031V2.45979C3.60352e-05 2.1763 0.109783 1.90443 0.305133 1.70397C0.500484 1.50351 0.765435 1.3909 1.0417 1.3909H2.29952C2.39058 1.39654 2.47611 1.43764 2.53865 1.5058C2.60118 1.57396 2.63601 1.66405 2.63601 1.75766C2.63601 1.85128 2.60118 1.94136 2.53865 2.00952C2.47611 2.07769 2.39058 2.11878 2.29952 2.12443H1.0417C0.999103 2.12423 0.956893 2.13275 0.917543 2.1495C0.878193 2.16625 0.842494 2.19088 0.812536 2.22196C0.752002 2.28505 0.717892 2.36992 0.717484 2.45845V5.19081H0.709671V5.18948ZM5.62373 2.11641C5.57498 2.11943 5.52614 2.11218 5.48022 2.09512C5.4343 2.07805 5.39227 2.05153 5.3567 2.01717C5.32114 1.98282 5.29281 1.94137 5.27344 1.89536C5.25407 1.84935 5.24408 1.79976 5.24408 1.74964C5.24408 1.69953 5.25407 1.64994 5.27344 1.60393C5.29281 1.55792 5.32114 1.51647 5.3567 1.48212C5.39227 1.44776 5.4343 1.42124 5.48022 1.40417C5.52614 1.38711 5.57498 1.37986 5.62373 1.38288H8.01957C8.06832 1.37986 8.11716 1.38711 8.16308 1.40417C8.209 1.42124 8.25104 1.44776 8.2866 1.48212C8.32216 1.51647 8.35049 1.55792 8.36986 1.60393C8.38923 1.64994 8.39922 1.69953 8.39922 1.74964C8.39922 1.79976 8.38923 1.84935 8.36986 1.89536C8.35049 1.94137 8.32216 1.98282 8.2866 2.01717C8.25104 2.05153 8.209 2.07805 8.16308 2.09512C8.11716 2.11218 8.06832 2.11943 8.01957 2.11641H5.62373ZM10.7526 11.1566L11.5118 11.8981L13.086 10.2614C13.2162 10.1278 13.2969 10.0182 13.4571 10.1866L13.9779 10.7317C14.1472 10.904 14.1381 10.9989 13.9779 11.1659L11.8073 13.3612C11.4701 13.7005 11.5287 13.7219 11.1849 13.3732L9.88285 12.0371C9.86594 12.0216 9.85265 12.0024 9.84396 11.9809C9.83528 11.9594 9.83141 11.9362 9.83266 11.9129C9.83392 11.8897 9.84025 11.8671 9.85119 11.8467C9.86213 11.8263 9.8774 11.8087 9.89587 11.7952L10.4974 11.1566C10.5873 11.059 10.6602 11.0644 10.7578 11.1566H10.7526Z" fill="#3A3A3A"/>
</g>
<defs>
<clipPath id="clip0_141_630">
<rect width="16" height="16" fill="white"/>
</clipPath>
</defs>
</svg>
