<svg width="11" height="11" viewBox="0 0 11 11" fill="none" xmlns="http://www.w3.org/2000/svg">
<path d="M9.81361 2.41211C10.1717 2.0459 10.1717 1.45117 9.81361 1.08496C9.45553 0.71875 8.87402 0.71875 8.51595 1.08496L5.49954 4.17285L2.48027 1.08789C2.1222 0.72168 1.54069 0.72168 1.18262 1.08789C0.824544 1.4541 0.824544 2.04883 1.18262 2.41504L4.20189 5.5L1.18548 8.58789C0.827409 8.9541 0.827409 9.54883 1.18548 9.91504C1.54355 10.2812 2.12506 10.2812 2.48314 9.91504L5.49954 6.82715L8.51881 9.91211C8.87689 10.2783 9.4584 10.2783 9.81647 9.91211C10.1745 9.5459 10.1745 8.95117 9.81647 8.58496L6.7972 5.5L9.81361 2.41211Z" fill="#C10000"/>
</svg>
