<svg width="14" height="14" viewBox="0 0 14 14" fill="none" xmlns="http://www.w3.org/2000/svg">
<path d="M7.00001 1.75C7.15472 1.75 7.30309 1.81146 7.41249 1.92085C7.52188 2.03025 7.58334 2.17862 7.58334 2.33333V7.92517L8.92092 6.58758C9.03094 6.48132 9.17829 6.42253 9.33124 6.42386C9.48419 6.42519 9.6305 6.48653 9.73865 6.59469C9.84681 6.70284 9.90815 6.84915 9.90948 7.0021C9.91081 7.15505 9.85202 7.3024 9.74576 7.41242L7.41242 9.74575C7.30303 9.85511 7.15469 9.91654 7.00001 9.91654C6.84533 9.91654 6.69698 9.85511 6.58759 9.74575L4.25426 7.41242C4.19854 7.3586 4.1541 7.29424 4.12353 7.22307C4.09296 7.1519 4.07687 7.07535 4.07619 6.9979C4.07552 6.92044 4.09028 6.84363 4.11961 6.77194C4.14894 6.70025 4.19226 6.63512 4.24703 6.58035C4.3018 6.52558 4.36693 6.48227 4.43862 6.45294C4.51031 6.42361 4.58712 6.40885 4.66457 6.40952C4.74203 6.41019 4.81857 6.42628 4.88974 6.45686C4.96091 6.48743 5.02528 6.53187 5.07909 6.58758L6.41667 7.92517V2.33333C6.41667 2.17862 6.47813 2.03025 6.58753 1.92085C6.69692 1.81146 6.8453 1.75 7.00001 1.75Z" fill="black"/>
<path d="M3.50065 9.91659C3.50065 9.76188 3.43919 9.6135 3.3298 9.50411C3.2204 9.39471 3.07203 9.33325 2.91732 9.33325C2.76261 9.33325 2.61424 9.39471 2.50484 9.50411C2.39544 9.6135 2.33398 9.76188 2.33398 9.91659V10.2666C2.33398 11.3644 3.21948 12.2499 4.31732 12.2499H9.68398C10.7818 12.2499 11.6673 11.3644 11.6673 10.2666V9.91659C11.6673 9.76188 11.6059 9.6135 11.4965 9.50411C11.3871 9.39471 11.2387 9.33325 11.084 9.33325C10.9293 9.33325 10.7809 9.39471 10.6715 9.50411C10.5621 9.6135 10.5007 9.76188 10.5007 9.91659V10.2666C10.5007 10.7204 10.1378 11.0833 9.68398 11.0833H4.31732C3.86348 11.0833 3.50065 10.7204 3.50065 10.2666V9.91659Z" fill="black"/>
</svg>
