<svg width="14" height="14" viewBox="0 0 14 14" fill="none" xmlns="http://www.w3.org/2000/svg">
<path fill-rule="evenodd" clip-rule="evenodd" d="M2.32745 9.83152L1.56095 11.8755C1.53152 11.9542 1.52535 12.0397 1.54318 12.1217C1.56101 12.2038 1.60209 12.279 1.6615 12.3384C1.72092 12.3977 1.79617 12.4387 1.87826 12.4565C1.96035 12.4742 2.04582 12.468 2.12445 12.4384L4.16787 11.6719C4.40175 11.5843 4.61417 11.4477 4.79087 11.2712L10.7099 5.3521C10.7099 5.3521 10.5034 4.73319 9.88511 4.11427C9.26678 3.49594 8.64728 3.28944 8.64728 3.28944L2.7282 9.20852C2.55169 9.38521 2.41505 9.59764 2.32745 9.83152ZM9.4727 2.46402L10.2794 1.65727C10.4241 1.5126 10.6172 1.42044 10.819 1.45427C11.1031 1.50094 11.5377 1.6421 11.9472 2.05219C12.3573 2.46227 12.4984 2.89627 12.5451 3.18035C12.5789 3.38219 12.4868 3.57527 12.3421 3.71994L11.5348 4.52669C11.5348 4.52669 11.3289 3.90835 10.7099 3.29002C10.0916 2.67052 9.4727 2.46402 9.4727 2.46402Z" fill="black"/>
</svg>
