<svg width="20" height="16" viewBox="0 0 20 16" fill="none" xmlns="http://www.w3.org/2000/svg">
  <g clip-path="url(#clip0_22_325)">
    <path d="M10.0001 1C7.19455 1 4.94803 2.15 3.31261 3.51875C1.68761 4.875 0.600803 6.5 0.0869141 7.61562C-0.0276693 7.8625 -0.0276693 8.1375 0.0869141 8.38437C0.600803 9.5 1.68761 11.125 3.31261 12.4812C4.94803 13.85 7.19455 15 10.0001 15C12.8057 15 15.0522 13.85 16.6876 12.4812C18.3126 11.1219 19.3994 9.5 19.9168 8.38437C20.0314 8.1375 20.0314 7.8625 19.9168 7.61562C19.3994 6.5 18.3126 4.875 16.6876 3.51875C15.0522 2.15 12.8057 1 10.0001 1ZM5.00011 8C5.00011 6.80653 5.52689 5.66193 6.46457 4.81802C7.40226 3.97411 8.67403 3.5 10.0001 3.5C11.3262 3.5 12.598 3.97411 13.5356 4.81802C14.4733 5.66193 15.0001 6.80653 15.0001 8C15.0001 9.19347 14.4733 10.3381 13.5356 11.182C12.598 12.0259 11.3262 12.5 10.0001 12.5C8.67403 12.5 7.40226 12.0259 6.46457 11.182C5.52689 10.3381 5.00011 9.19347 5.00011 8ZM10.0001 6C10.0001 7.10313 9.00358 8 7.77789 8C7.53136 8 7.29525 7.9625 7.07303 7.89687C6.88205 7.84062 6.65983 7.94688 6.66678 8.12813C6.67719 8.34375 6.71191 8.55937 6.77789 8.775C7.25358 10.375 9.08344 11.325 10.8612 10.8969C12.639 10.4688 13.6946 8.82188 13.2189 7.22188C12.8334 5.925 11.5591 5.05312 10.1425 5C9.94108 4.99375 9.82303 5.19062 9.88553 5.36562C9.95844 5.56562 10.0001 5.77812 10.0001 6Z" fill="currentColor" fill-opacity="0.6"/>
  </g>
  <defs>
    <clipPath id="clip0_22_325">
      <rect width="20" height="16" fill="white"/>
    </clipPath>
  </defs>
</svg>
