<svg width="16" height="16" viewBox="0 0 16 16" fill="none" xmlns="http://www.w3.org/2000/svg">
<g clip-path="url(#clip0_141_636)">
<path d="M0.75 7.375V9.0625H2.1875V15.875H13.75V9.0625H15.25V7.375H0.75ZM8.02625 14.5994C7.64687 14.5994 7.34 14.2919 7.34 13.9125C7.34 13.5338 7.64687 13.2262 8.02625 13.2262C8.40562 13.2262 8.71313 13.5338 8.71313 13.9125C8.71313 14.2919 8.40562 14.5994 8.02625 14.5994ZM9.6225 11.3544C9.52938 11.485 9.35188 11.655 9.08875 11.8606L8.82812 12.0638C8.685 12.1737 8.5925 12.3019 8.545 12.4494C8.515 12.5425 8.5 12.6875 8.4975 12.8831H7.5025C7.5175 12.4694 7.5575 12.1838 7.62063 12.0262C7.68313 11.8681 7.84812 11.6856 8.11125 11.48L8.37937 11.2694C8.4675 11.2019 8.54 11.1294 8.5925 11.0513C8.69 10.9188 8.73812 10.7706 8.73812 10.6081C8.73812 10.4225 8.6825 10.2519 8.575 10.0994C8.465 9.94625 8.26688 9.86875 7.97875 9.86875C7.69563 9.86875 7.4925 9.96375 7.375 10.1519C7.26937 10.32 7.21187 10.4925 7.19938 10.6731V10.6831C7.19938 10.7006 7.19938 10.7206 7.19688 10.7381C7.18313 10.8725 7.12 10.9913 7.02563 11.0769C6.93125 11.1625 6.80625 11.2144 6.66813 11.2144C6.3925 11.2144 6.16688 11.0062 6.13938 10.7381C6.13938 10.7381 6.14437 10.6056 6.14937 10.5681C6.2075 9.95875 6.4475 9.52062 6.86625 9.2525C7.15438 9.06687 7.51 8.97437 7.93125 8.97437C8.485 8.97437 8.94563 9.10437 9.31188 9.37C9.6775 9.63313 9.86063 10.0269 9.86063 10.55C9.86063 10.8688 9.78 11.1369 9.6225 11.3544ZM9.75 3.25H6.1875C5.21313 3.25 4.4375 4.08812 4.4375 5.0625V7.0625H5.6875V5.375C5.6875 5.26813 5.76813 5.1875 5.875 5.1875C5.98187 5.1875 6.0625 5.26813 6.0625 5.375V7.0625H9.875V5.375C9.875 5.26813 9.95562 5.1875 10.0625 5.1875C10.1694 5.1875 10.25 5.26813 10.25 5.375V7.0625H11.5V5.0625C11.5 4.09438 10.7181 3.25 9.75 3.25ZM7.96875 0.125C7.18937 0.125 6.55438 0.76 6.55438 1.53937C6.55438 2.31813 7.18313 2.95312 7.96875 2.95312C8.74188 2.95312 9.3825 2.31813 9.3825 1.53937C9.3825 0.76 8.74813 0.125 7.96875 0.125Z" fill="#3A3A3A"/>
</g>
<defs>
<clipPath id="clip0_141_636">
<rect width="16" height="16" fill="white"/>
</clipPath>
</defs>
</svg>
