<svg width="16" height="16" viewBox="0 0 16 16" fill="none" xmlns="http://www.w3.org/2000/svg">
<g clip-path="url(#clip0_141_660)">
<path fill-rule="evenodd" clip-rule="evenodd" d="M7.5 9H8.5V8H7.5V9ZM7.5 13H8.5V12H7.5V13ZM11.5 9H12.5V8H11.5V9ZM11.5 13H12.5V12H11.5V13ZM3.5 13H4.5V12H3.5V13ZM14.5 4H1.5V3C1.5 2.448 1.948 2 2.5 2H4.5V2.5C4.5 2.7765 4.7235 3 5 3C5.2765 3 5.5 2.7765 5.5 2.5V2H10.5V2.5C10.5 2.7765 10.7235 3 11 3C11.2765 3 11.5 2.7765 11.5 2.5V2H13.5C14.052 2 14.5 2.448 14.5 3V4ZM13.5 9C13.5 9.552 13.052 10 12.5 10H11.5C10.948 10 10.5 9.552 10.5 9V8C10.5 7.448 10.948 7 11.5 7H12.5C13.052 7 13.5 7.448 13.5 8V9ZM13.5 13C13.5 13.552 13.052 14 12.5 14H11.5C10.948 14 10.5 13.552 10.5 13V12C10.5 11.448 10.948 11 11.5 11H12.5C13.052 11 13.5 11.448 13.5 12V13ZM9.5 9C9.5 9.552 9.052 10 8.5 10H7.5C6.948 10 6.5 9.552 6.5 9V8C6.5 7.448 6.948 7 7.5 7H8.5C9.052 7 9.5 7.448 9.5 8V9ZM9.5 13C9.5 13.552 9.052 14 8.5 14H7.5C6.948 14 6.5 13.552 6.5 13V12C6.5 11.448 6.948 11 7.5 11H8.5C9.052 11 9.5 11.448 9.5 12V13ZM5.5 9C5.5 9.552 5.052 10 4.5 10H3.5C2.948 10 2.5 9.552 2.5 9V8C2.5 7.448 2.948 7 3.5 7H4.5C5.052 7 5.5 7.448 5.5 8V9ZM5.5 13C5.5 13.552 5.052 14 4.5 14H3.5C2.948 14 2.5 13.552 2.5 13V12C2.5 11.448 2.948 11 3.5 11H4.5C5.052 11 5.5 11.448 5.5 12V13ZM13.5 1H11.5V0.5C11.5 0.224 11.2765 0 11 0C10.7235 0 10.5 0.224 10.5 0.5V1H5.5V0.5C5.5 0.224 5.2765 0 5 0C4.7235 0 4.5 0.224 4.5 0.5V1H2.5C1.3955 1 0.5 1.8955 0.5 3V14C0.5 15.1045 1.3955 16 2.5 16H13.5C14.6045 16 15.5 15.1045 15.5 14V3C15.5 1.8955 14.6045 1 13.5 1ZM3.5 9H4.5V8H3.5V9Z" fill="#3A3A3A"/>
</g>
<defs>
<clipPath id="clip0_141_660">
<rect width="16" height="16" fill="white"/>
</clipPath>
</defs>
</svg>
