<svg width="16" height="16" viewBox="0 0 16 16" fill="none" xmlns="http://www.w3.org/2000/svg">
<g clip-path="url(#clip0_141_632)">
<path fill-rule="evenodd" clip-rule="evenodd" d="M5.53861 9.47239C5.33704 9.15232 5.16561 8.81452 5.02651 8.46327C3.92483 7.84869 3.74887 5.11562 4.42774 5.32265C4.42774 5.21978 4.40936 4.93202 4.40936 4.73411C4.40936 0.297908 11.5972 0.295304 11.5972 4.73411C11.5972 4.93723 11.5762 5.21978 11.5788 5.32265C12.2564 5.11171 12.0804 7.84478 10.9801 8.46327C10.7004 9.2315 10.2014 9.74713 10.2421 10.0844C10.2421 11.2419 8.95921 11.6612 8.00985 11.6716C7.92318 11.6716 7.83521 11.6716 7.74723 11.6586C7.95563 11.6037 8.15536 11.5204 8.34075 11.4112C8.74912 11.1638 9.02487 10.7979 9.02487 10.3591C9.02487 9.9203 8.75043 9.55181 8.34206 9.30572C7.96773 9.08785 7.5418 8.97237 7.10776 8.97109C6.77059 8.96485 6.43549 9.02458 6.12162 9.14687C5.92688 9.22524 5.74871 9.3392 5.59639 9.4828H5.5478L5.53861 9.47239ZM13.1874 4.11562H13.1388C12.6884 2.22369 11.5302 0.911189 10.1502 0.36822C9.34229 0.065767 8.47635 -0.0534692 7.61592 0.0192619C6.76842 0.0848619 5.94389 0.324293 5.19458 0.722387C4.56865 1.06669 4.03467 1.55422 3.63704 2.14441C3.23942 2.7346 2.98964 3.41041 2.90849 4.11562H2.81789C2.38457 4.11562 1.946 4.46848 1.946 4.89687V7.71848C1.946 8.14817 2.38457 8.49973 2.81789 8.49973H3.07394C3.35363 9.62603 4.48683 10.6573 5.64629 10.6573H5.87345C6.07173 10.9463 6.45646 11.1508 7.09725 11.1508C7.73804 11.1508 8.42085 10.7927 8.42085 10.3526C8.42085 9.91249 7.74723 9.55572 7.09725 9.55572C6.44727 9.55572 6.05334 9.76536 5.86163 10.0674H5.64629C4.65622 10.0674 3.67665 9.02577 3.60706 8.08567V4.1664C3.68099 3.57672 3.89375 3.01255 4.22814 2.51946C4.56254 2.02637 5.0092 1.61818 5.53205 1.32786C6.19383 0.978916 6.92115 0.769243 7.66845 0.71197C8.4229 0.647591 9.18233 0.750788 9.89151 1.01405C11.0352 1.46197 12.0003 2.57655 12.4166 4.11562H12.3995V8.49973H13.1874C13.6207 8.49973 14.0593 8.14817 14.0593 7.71848V4.89817C14.0593 4.46718 13.6207 4.11692 13.1874 4.11692V4.11562ZM8.48125 13.5987H8.72548C8.82996 13.5987 8.93015 13.5575 9.00403 13.4843C9.07791 13.411 9.11941 13.3117 9.11941 13.2081V12.557C9.11941 12.4534 9.07791 12.3541 9.00403 12.2808C8.93015 12.2076 8.82996 12.1664 8.72548 12.1664H7.28108C7.17713 12.1681 7.07792 12.2098 7.00441 12.2827C6.93089 12.3556 6.88885 12.4539 6.88716 12.557V13.2081C6.88917 13.311 6.93132 13.4092 7.00477 13.4821C7.07821 13.5549 7.17724 13.5967 7.28108 13.5987H7.524L7.04604 15.9984H8.9382L8.48125 13.5974V13.5987ZM0 15.9997C0.187772 13.5857 -0.290193 13.6833 1.74904 12.9268C2.79113 12.548 3.79305 12.0682 4.74025 11.4945L6.48272 16.0036L0 15.9997ZM11.3451 11.2849C12.2101 11.8297 13.1392 12.267 14.1118 12.587C16.0158 13.2146 16.0158 13.3031 15.9974 15.9945H9.5396L11.3451 11.2849Z" fill="#3A3A3A"/>
</g>
<defs>
<clipPath id="clip0_141_632">
<rect width="16" height="16" fill="white"/>
</clipPath>
</defs>
</svg>
