<svg width="16" height="16" viewBox="0 0 16 16" fill="none" xmlns="http://www.w3.org/2000/svg">
<g clip-path="url(#clip0_141_799)">
<path d="M6.66699 9.99992H14.667V10.6666H6.66699V9.99992ZM4.00033 7.99992H5.33366V6.66658H4.00033V7.99992ZM6.66699 7.33325H14.667V6.66658H6.66699V7.33325ZM4.00033 11.3333H5.33366V9.99992H4.00033V11.3333ZM6.66699 13.9999H14.667V13.3333H6.66699V13.9999ZM4.00033 14.6666H5.33366V13.3333H4.00033V14.6666ZM15.3337 1.99992V3.99992C15.3335 4.17668 15.2632 4.34614 15.1382 4.47113C15.0132 4.59611 14.8437 4.66641 14.667 4.66658H1.33366C1.1569 4.66641 0.987435 4.59611 0.862449 4.47113C0.737463 4.34614 0.667169 4.17668 0.666992 3.99992V1.99992C0.667169 1.82316 0.737463 1.6537 0.862449 1.52871C0.987435 1.40372 1.1569 1.33343 1.33366 1.33325H14.667C14.8437 1.33343 15.0132 1.40372 15.1382 1.52871C15.2632 1.6537 15.3335 1.82316 15.3337 1.99992ZM14.6677 3.99992L14.667 1.99992H1.33366V3.99992H14.6677Z" fill="#3A3A3A"/>
</g>
<defs>
<clipPath id="clip0_141_799">
<rect width="16" height="16" fill="white"/>
</clipPath>
</defs>
</svg>
