<svg width="16" height="16" viewBox="0 0 16 16" fill="none" xmlns="http://www.w3.org/2000/svg">
<path d="M12.5 2H10C10 0.896875 9.10313 0 8 0C6.89687 0 6 0.896875 6 2H3.5C2.67188 2 2 2.67188 2 3.5V14.5C2 15.3281 2.67188 16 3.5 16H12.5C13.3281 16 14 15.3281 14 14.5V3.5C14 2.67188 13.3281 2 12.5 2ZM5 13.25C4.58437 13.25 4.25 12.9156 4.25 12.5C4.25 12.0844 4.58437 11.75 5 11.75C5.41563 11.75 5.75 12.0844 5.75 12.5C5.75 12.9156 5.41563 13.25 5 13.25ZM5 10.25C4.58437 10.25 4.25 9.91562 4.25 9.5C4.25 9.08438 4.58437 8.75 5 8.75C5.41563 8.75 5.75 9.08438 5.75 9.5C5.75 9.91562 5.41563 10.25 5 10.25ZM5 7.25C4.58437 7.25 4.25 6.91563 4.25 6.5C4.25 6.08437 4.58437 5.75 5 5.75C5.41563 5.75 5.75 6.08437 5.75 6.5C5.75 6.91563 5.41563 7.25 5 7.25ZM8 1.25C8.41563 1.25 8.75 1.58438 8.75 2C8.75 2.41563 8.41563 2.75 8 2.75C7.58437 2.75 7.25 2.41563 7.25 2C7.25 1.58438 7.58437 1.25 8 1.25ZM12 12.75C12 12.8875 11.8875 13 11.75 13H7.25C7.1125 13 7 12.8875 7 12.75V12.25C7 12.1125 7.1125 12 7.25 12H11.75C11.8875 12 12 12.1125 12 12.25V12.75ZM12 9.75C12 9.8875 11.8875 10 11.75 10H7.25C7.1125 10 7 9.8875 7 9.75V9.25C7 9.1125 7.1125 9 7.25 9H11.75C11.8875 9 12 9.1125 12 9.25V9.75ZM12 6.75C12 6.8875 11.8875 7 11.75 7H7.25C7.1125 7 7 6.8875 7 6.75V6.25C7 6.1125 7.1125 6 7.25 6H11.75C11.8875 6 12 6.1125 12 6.25V6.75Z" fill="#3A3A3A"/>
</svg>
