<svg width="20" height="20" viewBox="0 0 20 20" fill="none" xmlns="http://www.w3.org/2000/svg">
<path d="M1 15.5288L6.28133 8.84177L1 4.35156V15.5288Z" fill="#0A62F1"/>
<path d="M19.0001 15.5288V4.35156L13.7188 8.84177L19.0001 15.5288Z" fill="#0A62F1"/>
<path d="M18.9531 16.0015H18.9979V15.9609L18.9531 16.0015Z" fill="#0A62F1"/>
<path d="M1 16.0015H1.04485L1 15.9609V16.0015Z" fill="#0A62F1"/>
<path d="M18.6947 15.9986L18.6632 15.9589L13.3153 9.1875L10.0036 12.0033L6.69185 9.1875L1.34392 15.9589L1.3125 15.9986H18.6947Z" fill="#0A62F1"/>
<path d="M6.61375 8.42095L6.81651 8.59343L7.01939 8.76587L9.99748 11.2979L12.9756 8.76587L13.1785 8.59343L13.3812 8.42095L18.5809 4H1.41406L6.61375 8.42095Z" fill="#0A62F1"/>
</svg>
