<svg width="20" height="20" viewBox="0 0 20 20" fill="none" xmlns="http://www.w3.org/2000/svg">
<path d="M17.5262 6.03321L10.707 2.66407C10.487 2.55612 10.2451 2.5 10 2.5C9.75489 2.5 9.51303 2.55612 9.29297 2.66407L2.47383 6.03321C2.10664 6.21136 1.79708 6.48936 1.58062 6.83536C1.36417 7.18135 1.24958 7.58134 1.25 7.98946V15.2008C1.25 16.407 2.24297 17.3883 3.46367 17.3883H16.5363C17.757 17.3883 18.75 16.407 18.75 15.2008V7.98946C18.7504 7.58134 18.6358 7.18135 18.4194 6.83536C18.2029 6.48936 17.8934 6.21136 17.5262 6.03321ZM9.85859 3.78204C9.90261 3.76045 9.95098 3.74922 10 3.74922C10.049 3.74922 10.0974 3.76045 10.1414 3.78204L16.7578 7.05L10.0391 10.3703C9.99505 10.3919 9.94668 10.4031 9.89766 10.4031C9.84863 10.4031 9.80026 10.3919 9.75625 10.3703L3.13867 7.10196L9.85859 3.78204Z" fill="#0A62F1"/>
</svg>
