<svg width="16" height="16" viewBox="0 0 16 16" fill="none" xmlns="http://www.w3.org/2000/svg">
<path d="M3.15149 6.86579C3.67161 6.72644 3.98027 6.19183 3.84091 5.67171C3.70156 5.1516 3.16695 4.84293 2.64683 4.98229C2.12672 5.12165 1.81805 5.65626 1.95741 6.17637C2.09677 6.69649 2.63138 7.00515 3.15149 6.86579Z" fill="#3A3A3A"/>
<path d="M4.67497 12.1874H3.48747C3.48747 12.1874 3.42497 12.1874 3.37497 12.1874C2.83747 12.1374 2.37497 11.7499 2.23747 11.2124L1.42497 8.18743C1.37497 8.01243 1.19997 7.92493 1.04997 7.96243C0.874975 8.01243 0.787475 8.18743 0.824975 8.33743L1.62497 11.3624C1.83747 12.1499 2.49997 12.7249 3.31247 12.7874C3.38747 12.7999 3.47497 12.7999 3.47497 12.7999H4.66247C4.83747 12.7999 4.96247 12.6624 4.97497 12.4874C4.97497 12.3124 4.84998 12.1874 4.67497 12.1874Z" fill="#3A3A3A"/>
<path d="M6.07538 10.4874H4.45038C4.41288 9.87485 4.31288 9.26235 4.16288 8.64985C4.15038 8.59985 4.11288 8.47485 4.11288 8.46235C3.90038 7.67485 3.15038 7.17485 2.36288 7.24985C2.36288 7.24985 2.26288 7.26235 2.23788 7.26235C1.95038 7.33735 1.77538 7.63735 1.85038 7.93735L2.68788 11.0499C2.77538 11.3999 3.07538 11.6624 3.45038 11.6874H3.52538H5.46288V13.9124C5.46288 14.2499 5.72538 14.5248 6.07538 14.5248C6.41288 14.5248 6.68788 14.2624 6.68788 13.9124V11.0999C6.68788 10.9374 6.62538 10.7874 6.50038 10.6749C6.38788 10.5499 6.22538 10.4874 6.07538 10.4874Z" fill="#3A3A3A"/>
<path d="M13.9913 6.18425C14.1307 5.66413 13.822 5.12952 13.3019 4.99016C12.7818 4.85081 12.2472 5.15947 12.1078 5.67959C11.9684 6.1997 12.2771 6.73431 12.7972 6.87367C13.3173 7.01303 13.8519 6.70436 13.9913 6.18425Z" fill="#3A3A3A"/>
<path d="M11.2756 12.1874H12.4631C12.4631 12.1874 12.5256 12.1874 12.5756 12.1874C13.1131 12.1374 13.5756 11.7499 13.7131 11.2124L14.5256 8.18743C14.5756 8.01243 14.7506 7.92493 14.9006 7.96243C15.0756 8.01243 15.1631 8.18743 15.1256 8.33743L14.3256 11.3624C14.1131 12.1499 13.4506 12.7249 12.6381 12.7874C12.5631 12.7999 12.4756 12.7999 12.4756 12.7999H11.2881C11.1131 12.7999 10.9881 12.6624 10.9756 12.4874C10.9756 12.3124 11.1131 12.1874 11.2756 12.1874Z" fill="#3A3A3A"/>
<path d="M9.8752 10.4876H11.5002C11.5377 9.87509 11.6377 9.26259 11.7877 8.65009C11.8002 8.60009 11.8377 8.47509 11.8377 8.46259C12.0502 7.67509 12.8002 7.17509 13.5877 7.25009C13.5877 7.25009 13.6877 7.26259 13.7127 7.26259C14.0002 7.33759 14.1752 7.63759 14.1002 7.93759L13.2502 11.0501C13.1627 11.4001 12.8627 11.6626 12.4877 11.6876H12.4127H10.4877V13.9126C10.4877 14.2501 10.2252 14.5251 9.8752 14.5251C9.5252 14.5251 9.2627 14.2626 9.2627 13.9126V11.1001C9.2627 10.9376 9.3252 10.7876 9.4502 10.6751C9.5627 10.5501 9.7252 10.4876 9.8752 10.4876Z" fill="#3A3A3A"/>
<path d="M11.1746 8.8501H4.84961V9.6001H11.1746V8.8501Z" fill="#3A3A3A"/>
<path d="M8.0123 6.3C8.50936 6.3 8.91231 5.89706 8.91231 5.4C8.91231 4.90294 8.50936 4.5 8.0123 4.5C7.51525 4.5 7.1123 4.90294 7.1123 5.4C7.1123 5.89706 7.51525 6.3 8.0123 6.3Z" fill="#3A3A3A"/>
<path d="M6.5625 8.4876V7.9501H6.55C6.55 7.8876 6.6 7.8376 6.6625 7.8376C6.725 7.8376 6.775 7.8876 6.775 7.9501V8.4876H9.2625V7.9501H9.25C9.25 7.8876 9.3 7.8376 9.3625 7.8376C9.425 7.8376 9.475 7.8876 9.475 7.9501V8.4876H10.25V7.7251C10.25 7.1001 9.75 6.6001 9.125 6.6001H6.875C6.25 6.6001 5.75 7.1001 5.75 7.7251V8.4876H6.5625Z" fill="#3A3A3A"/>
</svg>
