<svg width="20" height="24" viewBox="0 0 20 24" fill="none" xmlns="http://www.w3.org/2000/svg">
<path d="M10.0001 0C9.20994 0 8.57155 0.670312 8.57155 1.5V2.4C5.31262 3.09375 2.85726 6.12187 2.85726 9.75V10.6313C2.85726 12.8344 2.08494 14.9625 0.692086 16.6125L0.361729 17.0016C-0.0132708 17.4422 -0.102557 18.075 0.125122 18.6141C0.352801 19.1531 0.866193 19.5 1.42869 19.5H18.5716C19.1341 19.5 19.643 19.1531 19.8751 18.6141C20.1073 18.075 20.0135 17.4422 19.6385 17.0016L19.3082 16.6125C17.9153 14.9625 17.143 12.8391 17.143 10.6313V9.75C17.143 6.12187 14.6876 3.09375 11.4287 2.4V1.5C11.4287 0.670312 10.7903 0 10.0001 0ZM12.0224 23.1234C12.5582 22.5609 12.8573 21.7969 12.8573 21H10.0001H7.14298C7.14298 21.7969 7.44209 22.5609 7.9778 23.1234C8.51351 23.6859 9.24119 24 10.0001 24C10.7591 24 11.4867 23.6859 12.0224 23.1234Z" fill="white"/>
</svg>
