<svg width="16" height="16" viewBox="0 0 16 16" fill="none" xmlns="http://www.w3.org/2000/svg">
<g clip-path="url(#clip0_141_622)">
<path d="M4.35564 8.3555H11.6445V9.72439H12.3556V7.64439H8.35564V6.22217H7.64453V7.64439H3.64453V9.72439H4.35564V8.3555Z" fill="#3A3A3A"/>
<path d="M6.222 10.2222H1.77756C1.28664 10.2222 0.888672 10.6201 0.888672 11.1111V13.7777C0.888672 14.2686 1.28664 14.6666 1.77756 14.6666H6.222C6.71292 14.6666 7.11089 14.2686 7.11089 13.7777V11.1111C7.11089 10.6201 6.71292 10.2222 6.222 10.2222Z" fill="#3A3A3A"/>
<path d="M14.222 10.2222H9.77756C9.28664 10.2222 8.88867 10.6201 8.88867 11.1111V13.7777C8.88867 14.2686 9.28664 14.6666 9.77756 14.6666H14.222C14.7129 14.6666 15.1109 14.2686 15.1109 13.7777V11.1111C15.1109 10.6201 14.7129 10.2222 14.222 10.2222Z" fill="#3A3A3A"/>
<path d="M10.222 1.33337H5.77756C5.28664 1.33337 4.88867 1.73134 4.88867 2.22226V4.88893C4.88867 5.37985 5.28664 5.77782 5.77756 5.77782H10.222C10.7129 5.77782 11.1109 5.37985 11.1109 4.88893V2.22226C11.1109 1.73134 10.7129 1.33337 10.222 1.33337Z" fill="#3A3A3A"/>
</g>
<defs>
<clipPath id="clip0_141_622">
<rect width="16" height="16" fill="white"/>
</clipPath>
</defs>
</svg>
