<svg width="16" height="16" viewBox="0 0 16 16" fill="none" xmlns="http://www.w3.org/2000/svg">
<g clip-path="url(#clip0_141_658)">
<path fill-rule="evenodd" clip-rule="evenodd" d="M8 1.86094C11.3903 1.86094 14.1391 4.60969 14.1391 8C14.1391 11.3903 11.3903 14.1391 8 14.1391C4.60969 14.1391 1.86094 11.3903 1.86094 8C1.86094 4.60969 4.60969 1.86094 8 1.86094ZM8 0C10.2087 0 12.2091 0.895625 13.6566 2.34313C15.1044 3.79094 16 5.79094 16 8C16 10.2091 15.1044 12.2091 13.6566 13.6566C12.2091 15.1044 10.2091 16 8 16C5.79094 16 3.79094 15.1044 2.34313 13.6566C0.895625 12.2091 0 10.2087 0 8C0 5.79094 0.895625 3.79094 2.34313 2.34313C3.79094 0.895625 5.79094 0 8 0ZM13.1022 2.8975C11.7966 1.59188 9.9925 0.784063 8 0.784063C6.00719 0.784063 4.20312 1.59188 2.8975 2.8975C1.59188 4.20312 0.784063 6.00719 0.784063 8C0.784063 9.9925 1.59188 11.7966 2.8975 13.1022C4.20312 14.4081 6.00719 15.2156 8 15.2156C9.99281 15.2156 11.7969 14.4081 13.1022 13.1022C14.4081 11.7969 15.2156 9.99281 15.2156 8C15.2156 6.00719 14.4081 4.20312 13.1022 2.8975ZM5.65906 7.37406L6.05594 6.48H7.55281C7.45844 6.1625 7.0875 5.98406 6.77656 5.98406H5.65906L6.05594 5.09H10.3409L9.94406 5.98406H8.90906C9.04625 6.08938 9.19344 6.30656 9.21937 6.48H10.3409L9.94406 7.37406H9.1325C8.87062 8.04094 8.07156 8.49375 7.39031 8.59188L9.64188 10.91H7.86188L5.85406 8.70719V7.88625H6.74281C6.82812 7.88625 6.91219 7.8725 6.99469 7.84406C7.21125 7.77094 7.44531 7.6 7.51781 7.37406H5.65906Z" fill="#3A3A3A"/>
</g>
<defs>
<clipPath id="clip0_141_658">
<rect width="16" height="16" fill="white"/>
</clipPath>
</defs>
</svg>
