<svg width="29" height="30" viewBox="0 0 29 30" fill="none" xmlns="http://www.w3.org/2000/svg">
<circle cx="14.3296" cy="15.234" r="13" transform="rotate(-1.36534 14.3296 15.234)" stroke="#00275C" stroke-width="2"/>
<g clip-path="url(#clip0_1166_676)">
<path d="M14.6433 8.53312C14.6433 7.94288 14.164 7.46361 13.5738 7.46361C12.9836 7.46361 12.5043 7.94288 12.5043 8.53312L12.5066 13.5076L7.53213 13.51C6.94189 13.51 6.46262 13.9893 6.46262 14.5795C6.46262 15.1697 6.94189 15.649 7.53213 15.649L12.5066 15.6467L12.509 20.6212C12.509 21.2114 12.9883 21.6907 13.5785 21.6907C14.1688 21.6907 14.648 21.2114 14.648 20.6212L14.6457 15.6467L19.6202 15.6443C20.2104 15.6443 20.6897 15.165 20.6897 14.5748C20.6897 13.9845 20.2104 13.5053 19.6202 13.5053L14.6457 13.5076L14.6433 8.53312Z" fill="#00275C"/>
</g>
<defs>
<clipPath id="clip0_1166_676">
<rect width="12.8213" height="17.0951" fill="white" transform="translate(3 13.0662) rotate(-45)"/>
</clipPath>
</defs>
</svg>
