<svg width="16" height="16" viewBox="0 0 16 16" fill="none" xmlns="http://www.w3.org/2000/svg">
<g clip-path="url(#clip0_141_654)">
<path d="M7.99967 7.33325C8.88373 7.33325 9.73158 7.68444 10.3567 8.30956C10.9818 8.93468 11.333 9.78253 11.333 10.6666V14.6666H4.66634V10.6666C4.66634 9.78253 5.01753 8.93468 5.64265 8.30956C6.26777 7.68444 7.11562 7.33325 7.99967 7.33325ZM3.52501 9.33725C3.41891 9.69511 3.35624 10.0644 3.33834 10.4373L3.33301 10.6666V14.6666H1.33301V11.6666C1.33288 11.0916 1.54503 10.5369 1.92876 10.1087C2.3125 9.68057 2.84081 9.40917 3.41234 9.34659L3.52501 9.33725ZM12.4743 9.33725C13.0676 9.37341 13.6247 9.63455 14.0321 10.0674C14.4394 10.5003 14.6663 11.0722 14.6663 11.6666V14.6666H12.6663V10.6666C12.6663 10.2046 12.5997 9.75858 12.4743 9.33725ZM3.66634 5.33325C4.10837 5.33325 4.53229 5.50885 4.84485 5.82141C5.15741 6.13397 5.33301 6.55789 5.33301 6.99992C5.33301 7.44195 5.15741 7.86587 4.84485 8.17843C4.53229 8.49099 4.10837 8.66658 3.66634 8.66658C3.22431 8.66658 2.80039 8.49099 2.48783 8.17843C2.17527 7.86587 1.99967 7.44195 1.99967 6.99992C1.99967 6.55789 2.17527 6.13397 2.48783 5.82141C2.80039 5.50885 3.22431 5.33325 3.66634 5.33325ZM12.333 5.33325C12.775 5.33325 13.199 5.50885 13.5115 5.82141C13.8241 6.13397 13.9997 6.55789 13.9997 6.99992C13.9997 7.44195 13.8241 7.86587 13.5115 8.17843C13.199 8.49099 12.775 8.66658 12.333 8.66658C11.891 8.66658 11.4671 8.49099 11.1545 8.17843C10.8419 7.86587 10.6663 7.44195 10.6663 6.99992C10.6663 6.55789 10.8419 6.13397 11.1545 5.82141C11.4671 5.50885 11.891 5.33325 12.333 5.33325ZM7.99967 1.33325C8.70692 1.33325 9.38519 1.6142 9.88529 2.1143C10.3854 2.6144 10.6663 3.29267 10.6663 3.99992C10.6663 4.70716 10.3854 5.38544 9.88529 5.88554C9.38519 6.38563 8.70692 6.66658 7.99967 6.66658C7.29243 6.66658 6.61415 6.38563 6.11406 5.88554C5.61396 5.38544 5.33301 4.70716 5.33301 3.99992C5.33301 3.29267 5.61396 2.6144 6.11406 2.1143C6.61415 1.6142 7.29243 1.33325 7.99967 1.33325Z" fill="#3A3A3A"/>
</g>
<defs>
<clipPath id="clip0_141_654">
<rect width="16" height="16" fill="white"/>
</clipPath>
</defs>
</svg>
