<svg width="16" height="16" viewBox="0 0 16 16" fill="none" xmlns="http://www.w3.org/2000/svg">
<g clip-path="url(#clip0_141_634)">
<path d="M5 11C5.53043 11 6.03914 10.7893 6.41421 10.4142C6.78929 10.0391 7 9.53043 7 9C7 8.46957 6.78929 7.96086 6.41421 7.58579C6.03914 7.21071 5.53043 7 5 7C4.46957 7 3.96086 7.21071 3.58579 7.58579C3.21071 7.96086 3 8.46957 3 9C3 9.53043 3.21071 10.0391 3.58579 10.4142C3.96086 10.7893 4.46957 11 5 11ZM5 8C5.26522 8 5.51957 8.10536 5.70711 8.29289C5.89464 8.48043 6 8.73478 6 9C6 9.26522 5.89464 9.51957 5.70711 9.70711C5.51957 9.89464 5.26522 10 5 10C4.73478 10 4.48043 9.89464 4.29289 9.70711C4.10536 9.51957 4 9.26522 4 9C4 8.73478 4.10536 8.48043 4.29289 8.29289C4.48043 8.10536 4.73478 8 5 8ZM7.5 12H2.5C2.1717 12 1.84661 12.0647 1.54329 12.1903C1.23998 12.3159 0.964379 12.5001 0.732233 12.7322C0.500087 12.9644 0.315939 13.24 0.190302 13.5433C0.0646651 13.8466 0 14.1717 0 14.5C0 14.8978 0.158036 15.2794 0.439341 15.5607C0.720645 15.842 1.10218 16 1.5 16H8.5C8.89783 16 9.27936 15.842 9.56066 15.5607C9.84196 15.2794 10 14.8978 10 14.5C10 13.837 9.73661 13.2011 9.26777 12.7322C8.79893 12.2634 8.16304 12 7.5 12ZM8.5 15H1.5C1.36739 15 1.24021 14.9473 1.14645 14.8536C1.05268 14.7598 1 14.6326 1 14.5C1 14.1022 1.15804 13.7206 1.43934 13.4393C1.72065 13.158 2.10218 13 2.5 13H7.5C7.89782 13 8.27936 13.158 8.56066 13.4393C8.84196 13.7206 9 14.1022 9 14.5C9 14.6326 8.94732 14.7598 8.85355 14.8536C8.75979 14.9473 8.63261 15 8.5 15ZM16 2.5V7.5C16 8.16304 15.7366 8.79893 15.2678 9.26777C14.7989 9.73661 14.163 10 13.5 10H10.707L8.854 11.854C8.80748 11.9004 8.75227 11.9372 8.69153 11.9622C8.63079 11.9873 8.56571 12.0001 8.5 12C8.43443 12.0003 8.36947 11.9873 8.309 11.962C8.21756 11.9242 8.1394 11.8601 8.08439 11.7779C8.02939 11.6957 8.00002 11.5989 8 11.5V9.5C8 9.36739 8.05268 9.24021 8.14645 9.14645C8.24021 9.05268 8.36739 9 8.5 9C8.63261 9 8.75979 9.05268 8.85355 9.14645C8.94732 9.24021 9 9.36739 9 9.5V10.293L10.146 9.146C10.1925 9.0996 10.2477 9.06282 10.3085 9.03777C10.3692 9.01272 10.4343 8.99988 10.5 9H13.5C13.8978 9 14.2794 8.84196 14.5607 8.56066C14.842 8.27936 15 7.89782 15 7.5V2.5C15 2.10218 14.842 1.72064 14.5607 1.43934C14.2794 1.15804 13.8978 1 13.5 1H6.5C6.10218 1 5.72064 1.15804 5.43934 1.43934C5.15804 1.72064 5 2.10218 5 2.5V5.5C5 5.63261 4.94732 5.75979 4.85355 5.85355C4.75979 5.94732 4.63261 6 4.5 6C4.36739 6 4.24021 5.94732 4.14645 5.85355C4.05268 5.75979 4 5.63261 4 5.5V2.5C4 1.83696 4.26339 1.20107 4.73223 0.732233C5.20107 0.263392 5.83696 0 6.5 0H13.5C14.163 0 14.7989 0.263392 15.2678 0.732233C15.7366 1.20107 16 1.83696 16 2.5ZM9.146 6.854L7.146 4.854C7.09944 4.80755 7.06249 4.75238 7.03729 4.69163C7.01208 4.63089 6.99911 4.56577 6.99911 4.5C6.99911 4.43423 7.01208 4.36911 7.03729 4.30837C7.06249 4.24762 7.09944 4.19245 7.146 4.146C7.19245 4.09944 7.24762 4.06249 7.30837 4.03729C7.36911 4.01208 7.43423 3.99911 7.5 3.99911C7.56577 3.99911 7.63089 4.01208 7.69163 4.03729C7.75238 4.06249 7.80755 4.09944 7.854 4.146L9.5 5.793L12.146 3.146C12.1924 3.09944 12.2476 3.06249 12.3084 3.03729C12.3691 3.01208 12.4342 2.99911 12.5 2.99911C12.5658 2.99911 12.6309 3.01208 12.6916 3.03729C12.7524 3.06249 12.8076 3.09944 12.854 3.146C12.9006 3.19245 12.9375 3.24762 12.9627 3.30837C12.9879 3.36911 13.0009 3.43423 13.0009 3.5C13.0009 3.56577 12.9879 3.63089 12.9627 3.69163C12.9375 3.75238 12.9006 3.80755 12.854 3.854L9.854 6.854C9.80748 6.9004 9.75227 6.93718 9.69153 6.96223C9.63079 6.98728 9.56571 7.00012 9.5 7C9.43429 7.00012 9.36921 6.98728 9.30847 6.96223C9.24773 6.93718 9.19252 6.9004 9.146 6.854Z" fill="#3A3A3A"/>
</g>
<defs>
<clipPath id="clip0_141_634">
<rect width="16" height="16" fill="white"/>
</clipPath>
</defs>
</svg>
