<svg width="16" height="16" viewBox="0 0 16 16" fill="none" xmlns="http://www.w3.org/2000/svg">
<g clip-path="url(#clip0_141_664)">
<path d="M13.7138 3.17635C13.7138 3.17635 13.7138 3.04005 13.7138 2.87238C13.7138 2.7047 13.6928 2.33339 13.5026 2.15504C13.4068 2.06527 13.2685 1.99684 13.0706 1.99684H11.9991C11.9991 1.99684 11.4282 1.99684 11.4282 2.53256V3.10406C11.4282 3.71234 10.3108 3.69665 10.3108 3.69665L5.70932 3.69905C5.70932 3.69905 4.57095 3.67388 4.57095 3.17668V2.44894C4.57095 2.44894 4.60679 1.98584 3.99939 1.98584H2.8572C2.8572 1.98584 2.28444 1.98584 2.28444 2.48478V3.17695C2.28444 3.17695 2.30487 3.47444 1.84177 3.62616C1.48888 3.7417 0.717336 3.6321 0.344286 3.95149C0.150789 4.11677 0 4.3935 0 4.85366V12.9073C0 12.9073 0.0352457 14.0142 1.14252 14.0142H14.7852C14.7852 14.0142 16 13.9431 16 12.9431V4.81841C16 4.81841 15.963 3.71207 14.8208 3.71207C14.8208 3.71174 13.7138 3.63918 13.7138 3.17635ZM11.9988 3.13931C11.9988 2.82466 12.2204 2.56802 12.5345 2.56802H12.5704C12.8862 2.56802 13.1428 2.8246 13.1428 3.13931V4.2827C13.1428 4.59735 12.9046 4.85366 12.5887 4.85366H12.5529C12.237 4.85366 11.9988 4.59768 11.9988 4.2827V3.13931ZM10.0418 8.8537H12.899C13.0563 8.8537 13.184 8.98112 13.184 9.13991C13.184 9.29724 13.0563 9.42526 12.899 9.42526H10.0418C9.88445 9.42526 9.75556 9.29724 9.75556 9.13991C9.75556 8.98106 9.88445 8.8537 10.0418 8.8537ZM13.1668 10.318C13.1668 10.4863 13.0311 10.5855 12.8637 10.5855H10.0776C9.91022 10.5855 9.77392 10.4863 9.77392 10.318C9.77392 10.1506 9.90995 10.0143 10.0776 10.0143H12.8637C13.0311 10.0142 13.1668 10.1505 13.1668 10.318ZM4.88505 5.42729C5.76625 5.42729 6.48059 6.20923 6.48059 7.26372C6.48059 8.31853 5.7662 9.17456 4.88505 9.17456C4.00391 9.17456 3.29011 8.31858 3.29011 7.26372C3.29006 6.20923 4.00385 5.42729 4.88505 5.42729ZM2.87436 3.10907C2.87436 2.79442 3.09422 2.57336 3.41007 2.57336H3.44591C3.76176 2.57336 3.99939 2.7941 3.99939 3.10907V4.2827C3.99939 4.59735 3.74281 4.85366 3.42843 4.85366H3.39111C3.07706 4.85366 2.87436 4.59768 2.87436 4.2827V3.10907ZM7.87114 11.5837C7.7313 11.7847 7.41779 11.758 7.41779 11.758H2.40418C2.40418 11.758 2.06583 11.7802 1.91678 11.5749C1.83648 11.4641 1.89221 11.2392 1.94761 11.1135L2.08271 10.8063C2.08271 10.8063 2.45544 9.97247 2.88008 9.48894C3.1408 9.19265 3.45104 9.2602 3.65161 9.35651C3.77517 9.41578 3.915 9.58879 4.01693 9.68037C4.15769 9.80659 4.40594 9.95002 4.81216 9.95798H5.06134C5.46729 9.95029 5.71554 9.80659 5.85603 9.68037C5.95822 9.58879 6.09398 9.41071 6.21633 9.34943C6.40062 9.25725 6.68063 9.20071 6.93454 9.48927C7.35945 9.97285 7.69545 10.822 7.69545 10.822L7.83355 11.1234C7.89069 11.2475 7.94937 11.4711 7.87114 11.5837ZM12.9263 11.7106H10.0151C9.86222 11.7106 9.73867 11.5879 9.73867 11.4344C9.73867 11.2812 9.86222 11.1568 10.0151 11.1568H12.9263C13.0777 11.1568 13.2027 11.2812 13.2027 11.4344C13.2027 11.5879 13.0777 11.7106 12.9263 11.7106Z" fill="#3A3A3A"/>
</g>
<defs>
<clipPath id="clip0_141_664">
<rect width="16" height="16" fill="white"/>
</clipPath>
</defs>
</svg>
